<?xml version="1.0" encoding="UTF-8" standalone="no"?><svg xmlns="http://www.w3.org/2000/svg" xmlns:xlink="http://www.w3.org/1999/xlink" contentScriptType="application/ecmascript" contentStyleType="text/css" height="270px" preserveAspectRatio="none" style="width:572px;height:270px;" version="1.1" viewBox="0 0 572 270" width="572px" zoomAndPan="magnify"><defs><filter height="300%" id="f1fr2b0ocfxzgy" width="300%" x="-1" y="-1"><feGaussianBlur result="blurOut" stdDeviation="2.0"/><feColorMatrix in="blurOut" result="blurOut2" type="matrix" values="0 0 0 0 0 0 0 0 0 0 0 0 0 0 0 0 0 0 .4 0"/><feOffset dx="4.0" dy="4.0" in="blurOut2" result="blurOut3"/><feBlend in="SourceGraphic" in2="blurOut3" mode="normal"/></filter></defs><g><!--MD5=[2b2ad658aba510b8241d75948062198e]
cluster ClientActor--><rect fill="#FFFFFF" filter="url(#f1fr2b0ocfxzgy)" height="223.5" style="stroke: #000000; stroke-width: 1.5;" width="200" x="30" y="32.5"/><rect fill="#FFFFFF" height="10" style="stroke: #000000; stroke-width: 1.5;" width="15" x="210" y="37.5"/><rect fill="#FFFFFF" height="2" style="stroke: #000000; stroke-width: 1.5;" width="4" x="208" y="39.5"/><rect fill="#FFFFFF" height="2" style="stroke: #000000; stroke-width: 1.5;" width="4" x="208" y="43.5"/><text fill="#000000" font-family="sans-serif" font-size="14" font-weight="bold" lengthAdjust="spacingAndGlyphs" textLength="184" x="38" y="58.4951">ClientActor &lt;&lt;Actor&gt;&gt;</text><!--MD5=[979da56a7f83e2393dc758167ae295d0]
cluster Server--><path d="M352.0996,165.7577 C356.0153,158.0094 360.856,157.6415 366.8027,163.5751 C370.9519,157.2633 375.7057,158.2039 379.8161,163.6182 C382.8444,155.3993 387.7375,156.0223 393.5827,160.584 C398.4496,153.7837 402.5946,153.766 407.3314,160.714 C409.8659,154.035 416.3863,152.8216 420.9989,158.3961 C424.0624,151.9366 431.3721,150.6715 435.7567,156.8539 C439.6394,148.8637 443.9197,149.2183 449.4049,155.2996 C454.8683,150.1815 458.9898,150.1215 462.423,157.4269 C466.7163,151.504 472.7581,150.4556 476.6776,157.8277 C481.9495,150.9838 488.3011,151.4481 492.3012,159.19 C497.1935,153.6649 501.326,154.7757 504.5994,160.8991 C510.0099,155.1855 515.0783,154.7323 519.0041,162.487 C523.0984,157.3046 529.7333,157.7468 532.4474,164.096 C537.829,157.4634 542.9762,158.6035 547.1684,165.3999 C554.9428,168.3326 554.2436,174.9167 548.316,179.0052 C555.6331,181.8512 555.9967,186.6929 551.1407,192.154 C557.4051,194.5966 559.4295,199.9852 554.0266,205.0407 C560.0638,210.6167 558.7352,215.4816 551.2447,218.1972 C556.7643,223.597 556.8646,228.4032 549.8406,232.5784 C555.4952,237.7473 554.7781,243.4154 547.5524,246.4615 C543.0516,254.407 535.7518,254.0314 531.3994,246.3085 C527.9006,252.2324 521.2978,253.1831 517.4422,246.7102 C513.9957,252.5391 509.4472,252.814 505.2251,247.5656 C500.4708,255.093 495.1432,254.9629 490.0065,247.9662 C486.5708,254.8861 482.6578,255.6259 476.9808,250.3624 C472.7285,256.0674 467.0015,256.9523 463.2352,249.8412 C460.2097,256.541 454.031,258.0617 449.6019,251.2583 C444.959,257.5578 440.8338,257.193 436.7445,250.7018 C432.1197,256.8233 425.7874,255.5891 423.1272,248.653 C418.8656,255.2022 412.7994,256.9592 408.0381,249.1793 C403.6757,255.2759 397.4423,255.8133 394.3144,247.9644 C390.5063,254.2296 384.8953,252.4082 381.883,247.109 C376.4035,254.7958 371.3775,254.5394 366.7738,246.2791 C361.5127,251.8036 357.3397,251.9354 353.7157,244.6148 C346.7937,241.2932 346.576,236.6968 351.788,231.5806 C345.7553,227.9841 345.2783,223.5206 351.0772,219.2424 C342.9231,214.7326 343.4903,209.8589 350.2737,204.5332 C344.7906,200.0553 343.7022,195.159 350.8897,191.2695 C345.9611,188.0091 345.9568,182.6305 351.8068,180.2687 C344.1046,176.1062 344.3922,169.6092 352.0996,165.7577 " fill="#ADD8E6" style="stroke: #000000; stroke-width: 1.5;"/><text fill="#000000" font-family="sans-serif" font-size="14" font-weight="bold" lengthAdjust="spacingAndGlyphs" textLength="53" x="422" y="182.4951">Server</text><!--MD5=[854490cbfb8eedee4432d73740ee6d75]
entity View--><ellipse cx="126" cy="103.5" fill="#FEFECE" filter="url(#f1fr2b0ocfxzgy)" rx="8" ry="8" style="stroke: #A80036; stroke-width: 2.0;"/><text fill="#000000" font-family="sans-serif" font-size="13" lengthAdjust="spacingAndGlyphs" textLength="29" x="111.5" y="132.5669">View</text><!--MD5=[af600588493ef94de5f1169cd1a1551c]
entity Main Screen--><rect fill="#FEFECE" filter="url(#f1fr2b0ocfxzgy)" height="36.2969" style="stroke: #A80036; stroke-width: 1.5;" width="105" x="73.5" y="196"/><rect fill="#FEFECE" height="5" style="stroke: #A80036; stroke-width: 1.5;" width="10" x="68.5" y="201"/><rect fill="#FEFECE" height="5" style="stroke: #A80036; stroke-width: 1.5;" width="10" x="68.5" y="222.2969"/><text fill="#000000" font-family="sans-serif" font-size="14" lengthAdjust="spacingAndGlyphs" textLength="85" x="83.5" y="218.9951">Main Screen</text><!--MD5=[15ca4a4e1752d084f5e9a9f6f7411585]
entity ServerActor--><rect fill="#FEFECE" filter="url(#f1fr2b0ocfxzgy)" height="36.2969" style="stroke: #A80036; stroke-width: 1.5;" width="100" x="360" y="196"/><rect fill="#FEFECE" height="5" style="stroke: #A80036; stroke-width: 1.5;" width="10" x="355" y="201"/><rect fill="#FEFECE" height="5" style="stroke: #A80036; stroke-width: 1.5;" width="10" x="355" y="222.2969"/><text fill="#000000" font-family="sans-serif" font-size="14" lengthAdjust="spacingAndGlyphs" textLength="80" x="370" y="218.9951">ServerActor</text><!--MD5=[f9ba5bf973e7832d2ce5ed59077b93f7]
entity DB--><path d="M495.5,201.5 C495.5,191.5 516,191.5 516,191.5 C516,191.5 536.5,191.5 536.5,201.5 L536.5,226.7969 C536.5,236.7969 516,236.7969 516,236.7969 C516,236.7969 495.5,236.7969 495.5,226.7969 L495.5,201.5 " fill="#FEFECE" filter="url(#f1fr2b0ocfxzgy)" style="stroke: #000000; stroke-width: 1.5;"/><path d="M495.5,201.5 C495.5,211.5 516,211.5 516,211.5 C516,211.5 536.5,211.5 536.5,201.5 " fill="none" style="stroke: #000000; stroke-width: 1.5;"/><text fill="#000000" font-family="sans-serif" font-size="14" lengthAdjust="spacingAndGlyphs" textLength="21" x="505.5" y="228.4951">DB</text><!--MD5=[a3558e19dce8a5bb28e6268812ad7fbf]
entity ClientMailbox--><ellipse cx="316" cy="214" fill="#FEFECE" filter="url(#f1fr2b0ocfxzgy)" rx="8" ry="8" style="stroke: #A80036; stroke-width: 2.0;"/><text fill="#000000" font-family="sans-serif" font-size="13" lengthAdjust="spacingAndGlyphs" textLength="48" x="292" y="243.0669">Mailbox</text><!--MD5=[90ada3bf7fe2c2a98016ebff2494a379]
entity ServerMailbox--><ellipse cx="263" cy="214" fill="#FEFECE" filter="url(#f1fr2b0ocfxzgy)" rx="8" ry="8" style="stroke: #A80036; stroke-width: 2.0;"/><text fill="#000000" font-family="sans-serif" font-size="13" lengthAdjust="spacingAndGlyphs" textLength="48" x="239" y="243.0669">Mailbox</text><!--MD5=[bd07013ad72ff589aa1a67acb1d5131c]
link View to Main Screen--><path d="M126,112.655 C126,130.2 126,171.859 126,195.6165 " fill="none" id="View-Main Screen" style="stroke: #A80036; stroke-width: 1.0;"/><!--MD5=[1e9f761f2c82edb5f195ef33f263a0a4]
link ServerActor to DB--><path d="M460.102,214 C471.893,214 483.684,214 495.475,214 " fill="none" id="ServerActor-DB" style="stroke: #A80036; stroke-width: 1.0;"/><!--MD5=[cb57a22f86fd4931ee8c65b037efec13]
link ServerMailbox to ServerActor--><path d="M264.619,204.8324 C267.486,191.0325 274.662,164.806 290,148.5 C295.924,142.202 299.073,141.938 307.5,140 C346.001,131.144 381.035,171.326 398.442,195.965 " fill="none" id="ServerMailbox-ServerActor" style="stroke: #A80036; stroke-width: 1.0;"/><!--MD5=[4042f3142f1f90e17101892ae030a3f0]
link ClientActor to ClientMailbox--><path d="M230.0808,107.7604 C230.1528,107.7914 230.2251,107.8226 230.2979,107.854 C230.4433,107.9168 230.5904,107.9805 230.7389,108.045 C235.4929,110.11 241.8128,113.0518 248.7428,116.8035 C262.6028,124.307 278.9035,135.0505 290,148.5 C304.138,165.636 311.384,191.4596 314.342,204.6301 " fill="none" id="ClientActor-ClientMailbox" style="stroke: #A80036; stroke-width: 1.0;"/><!--MD5=[3d05af2510b861b5f321467f6b412ef3]
link ClientActor to ServerMailbox--><path d="M230.1138,125.9714 C230.214,126.2368 230.3149,126.5038 230.4165,126.7724 C230.6195,127.3097 230.825,127.8535 231.0328,128.4035 C232.6953,132.803 234.5061,137.5951 236.3929,142.5883 C243.94,162.5607 252.7025,185.7495 258.048,199.895 " fill="none" id="ClientActor-&gt;ServerMailbox" style="stroke: #A80036; stroke-width: 1.0;"/><polygon fill="#A80036" points="259.876,204.7335,260.4363,194.9006,258.1086,200.0563,252.9528,197.7285,259.876,204.7335" style="stroke: #A80036; stroke-width: 1.0;"/><!--MD5=[684c472c705eeb0165575f2e5238709e]
link ServerActor to ClientMailbox--><path d="M359.969,214 C350.094,214 340.219,214 330.344,214 " fill="none" id="ServerActor-&gt;ClientMailbox" style="stroke: #A80036; stroke-width: 1.0;"/><polygon fill="#A80036" points="325.18,214,334.18,218,330.18,214,334.18,210,325.18,214" style="stroke: #A80036; stroke-width: 1.0;"/><!--MD5=[63d37064bf07d24c99b08810ec4ee111]
@startuml
() Mailbox as ClientMailbox
() Mailbox as ServerMailbox

component "ClientActor <<Actor>>" as ClientActor {
  View - - [Main Screen]
}

cloud "Server" {
    [ServerActor] as ServerActor
    database "DB" as DB
} 
DB -left- ServerActor

ServerActor -left- ServerMailbox
ClientActor -right- ClientMailbox

ClientActor -d-> ServerMailbox
ServerActor -r-> ClientMailbox


skinparam {
    CloudBackgroundColor lightblue
    InterfaceFontSize 13
}
@enduml

PlantUML version 1.2020.01beta5(Unknown compile time)
(GPL source distribution)
Java Runtime: Java(TM) SE Runtime Environment
JVM: Java HotSpot(TM) 64-Bit Server VM
Java Version: 1.7.0_25-b15
Operating System: Linux
Default Encoding: UTF-8
Language: en
Country: US
--></g></svg>